<?xml version="1.0" encoding="UTF-8" standalone="no"?>
<!-- Created with Inkscape (http://www.inkscape.org/) -->

<svg
   xmlns:dc="http://purl.org/dc/elements/1.1/"
   xmlns:cc="http://creativecommons.org/ns#"
   xmlns:rdf="http://www.w3.org/1999/02/22-rdf-syntax-ns#"
   xmlns:svg="http://www.w3.org/2000/svg"
   xmlns="http://www.w3.org/2000/svg"
   xmlns:sodipodi="http://sodipodi.sourceforge.net/DTD/sodipodi-0.dtd"
   xmlns:inkscape="http://www.inkscape.org/namespaces/inkscape"
   width="744.09448819"
   height="1052.3622047"
   id="svg2"
   version="1.1"
   inkscape:version="0.48.3.1 r9886"
   sodipodi:docname="alignments.svg">
  <defs
     id="defs4" />
  <sodipodi:namedview
     id="base"
     pagecolor="#ffffff"
     bordercolor="#666666"
     borderopacity="1.0"
     inkscape:pageopacity="0.0"
     inkscape:pageshadow="2"
     inkscape:zoom="1.979899"
     inkscape:cx="214.41682"
     inkscape:cy="198.5556"
     inkscape:document-units="px"
     inkscape:current-layer="layer1"
     showgrid="false"
     showguides="true"
     inkscape:guide-bbox="true"
     inkscape:snap-global="true"
     inkscape:window-width="1918"
     inkscape:window-height="1153"
     inkscape:window-x="1"
     inkscape:window-y="1"
     inkscape:window-maximized="1">
    <sodipodi:guide
       orientation="1,0"
       position="100,697.14286"
       id="guide2985" />
    <sodipodi:guide
       orientation="1,0"
       position="200,684.28571"
       id="guide2987" />
    <sodipodi:guide
       orientation="1,0"
       position="300,651.42857"
       id="guide2989" />
    <sodipodi:guide
       orientation="1,0"
       position="90,602.85714"
       id="guide2991" />
    <sodipodi:guide
       orientation="1,0"
       position="190,761.42857"
       id="guide2993" />
    <sodipodi:guide
       orientation="1,0"
       position="-19.192898,446.48743"
       id="guide2995" />
    <sodipodi:guide
       orientation="1,0"
       position="290,801.42857"
       id="guide2997" />
    <sodipodi:guide
       orientation="1,0"
       position="390,898.57143"
       id="guide2999" />
    <sodipodi:guide
       orientation="0,1"
       position="-19.192898,-21.213203"
       id="guide3001" />
    <sodipodi:guide
       orientation="0,1"
       position="242.43661,89.903577"
       id="guide3003" />
    <sodipodi:guide
       orientation="0,1"
       position="181.82746,98.994949"
       id="guide3005" />
    <sodipodi:guide
       orientation="0,1"
       position="274.76149,189.90868"
       id="guide3007" />
    <sodipodi:guide
       orientation="0,1"
       position="165.66502,300.01531"
       id="guide3011" />
    <sodipodi:guide
       orientation="0,1"
       position="167.68532,289.91378"
       id="guide3013" />
    <sodipodi:guide
       orientation="0,1"
       position="153.54319,389.91888"
       id="guide3015" />
    <sodipodi:guide
       orientation="0,1"
       position="151.52288,345.47217"
       id="guide3101" />
    <sodipodi:guide
       orientation="0,1"
       position="132.32998,245.46707"
       id="guide3103" />
    <sodipodi:guide
       orientation="0,1"
       position="-19.192898,143.44166"
       id="guide3105" />
    <sodipodi:guide
       orientation="1,0"
       position="44.446712,427.29453"
       id="guide3107" />
    <sodipodi:guide
       orientation="1,0"
       position="144.45181,430.32498"
       id="guide3109" />
    <sodipodi:guide
       orientation="1,0"
       position="245.46707,440.42651"
       id="guide3111" />
    <sodipodi:guide
       orientation="1,0"
       position="345.47217,465.68032"
       id="guide3113" />
    <inkscape:grid
       type="xygrid"
       id="grid4223" />
  </sodipodi:namedview>
  <metadata
     id="metadata7">
    <rdf:RDF>
      <cc:Work
         rdf:about="">
        <dc:format>image/svg+xml</dc:format>
        <dc:type
           rdf:resource="http://purl.org/dc/dcmitype/StillImage" />
        <dc:title />
      </cc:Work>
    </rdf:RDF>
  </metadata>
  <g
     inkscape:label="Layer 1"
     inkscape:groupmode="layer"
     id="layer1">
    <path
       id="path3051-9"
       style="fill:none;stroke:#000000;stroke-width:2.79999995;stroke-miterlimit:4;stroke-opacity:1"
       d="m 130.99396,977.61545 0,20.20305 29.16815,0 0,-20.20305 z m -8.14435,20.32931 0,21.08694 45.45686,0 0,-21.08694 z m 10.54346,21.46574 0,17.2989 24.36993,0 0,-17.2989 z m -67.86966,-0.4132 0,17.2989 24.37,0 0,-17.2989 z m -21.0869,-21.46575 0,21.08695 45.4569,0 0,-21.08695 z m 16.2887,-20.32931 0,20.20305 29.1682,0 0,-20.20305 z m 163.64472,41.66876 0,17.2989 -24.36993,0 0,-17.2989 z m 21.08692,-21.46572 0,21.08692 -45.45686,0 0,-21.08692 z m -16.2887,-20.32931 0,20.20305 -29.16815,0 0,-20.20305 z m -83.71639,60.90683 0,14.4758 m 0,-89.99999 0,16.30401 m -55.55835,-16.30401 0,89.99999 M 200,962.45861 l 0,89.99999 m 115.15684,-231.10569 20.20305,0 0,-29.16815 -20.20305,0 z m 20.32931,8.14435 21.08694,0 0,-45.45686 -21.08694,0 z m 21.46573,-10.54346 17.29886,0 0,-24.36993 -17.29886,0 z m -0.41321,67.86963 17.29886,0 0,-24.36993 -17.29886,0 z m -21.46573,21.08692 21.08694,0 0,-45.45686 -21.08694,0 z m -20.32931,-16.2887 20.20305,0 0,-29.16815 -20.20305,0 z m 41.66877,-163.64471 17.29886,0 0,24.36993 -17.29886,0 z m -21.46573,-21.08692 21.08694,0 0,45.45686 -21.08694,0 z m -20.32931,16.2887 20.20305,0 0,29.16815 -20.20305,0 z M 200,862.45349 l 36.36549,0 0,35.86042 -36.36549,0 z m -73.73093,0 36.36549,0 0,35.86042 -36.36549,0 z m -72.634556,0 36.36549,0 0,35.86042 -36.36549,0 z m -8e-6,-73.48865 36.36549,0 0,35.86042 -36.36549,0 z m 72.634564,0.25257 36.36549,0 0,35.86041 -36.36549,0 z M 200,788.83862 l 36.36549,0 0,35.86042 -36.36549,0 z m 0,-72.35217 36.36549,0 0,35.86042 -36.36549,0 z m -74.36227,0 36.36549,0 0,35.86042 -36.36549,0 z m -72.099644,0 36.36549,0 0,35.86042 -36.36549,0 z m 236.442564,90.40862 -54.26815,0 m -35.63543,-44.4518 0,90 M 290,862.4535 l -90,0 0,90.67387 m 90,-200.7805 -90,0 0,-90.26074 m 175.52421,144.80898 14.47579,0 m -90,0 16.30401,0 M 300,862.4535 l 90,0 m -90,-110.10663 90,0 m -8.08121,254.63953 c 0,19.5711 -15.86545,35.4365 -35.43646,35.4365 -19.57102,0 -35.43646,-15.8654 -35.43646,-35.4365 0,-19.57097 15.86544,-35.43642 35.43646,-35.43642 19.57101,0 35.43646,15.86545 35.43646,35.43642 z m -255.78953,-200.09129 -26.12926,0 m 62.78973,0.0632 L 190,806.89511 m -45.54819,18.18275 0,28.28427 m 0,-90.91373 0,27.13612 m 0,163.78271 0.0939,-53.79062 M 100,862.4535 l 90,0 m -191.010148,-55.55839 54.268149,0 M 90,762.4433 l 0,90 m 54.45181,-190 0,53.03301 M 100,752.34687 l 90,0 M 1.91878,862.4535 l 88.08122,0 0,91.92387 M 1.9187796,752.34687 90,752.34687 90,662.4433" />
  </g>
</svg>
